<?xml version="1.0" standalone="no"?>
<!DOCTYPE svg PUBLIC "-//W3C//DTD SVG 20010904//EN"
 "http://www.w3.org/TR/2001/REC-SVG-20010904/DTD/svg10.dtd">
<svg version="1.0" xmlns="http://www.w3.org/2000/svg"
 width="261.000000pt" height="261.000000pt" viewBox="0 0 261.000000 261.000000"
 preserveAspectRatio="xMidYMid meet">
<metadata>
Created by potrace 1.14, written by Peter Selinger 2001-2017
</metadata>
<g transform="translate(0.000000,261.000000) scale(0.100000,-0.100000)"
fill="#000000" stroke="none">
<path d="M1773 2454 c-7 -3 -76 -76 -155 -163 -755 -833 -1035 -1146 -1046
-1172 -31 -74 26 -159 108 -159 21 0 159 45 326 106 159 58 339 124 399 146
l110 39 -36 -38 c-20 -21 -127 -141 -239 -268 -113 -126 -281 -315 -375 -420
-94 -104 -179 -201 -188 -215 -47 -68 8 -170 91 -170 52 0 64 10 228 197 502
568 959 1079 970 1086 19 11 44 61 44 87 0 53 -57 110 -109 110 -11 0 -210
-70 -442 -155 -233 -85 -424 -154 -425 -152 -2 2 341 380 738 815 170 186 184
211 154 270 -9 17 -26 38 -38 46 -21 15 -88 20 -115 10z"/>
</g>
</svg>
