<?xml version="1.0" encoding="UTF-8"?>
<svg id="f1" xmlns="http://www.w3.org/2000/svg" viewBox="0 0 11.71 2.58">
  <defs>
    <style>
      .cls-1 {
        fill: #fff;
      }

      .cls-2 {
        stroke-width: .04px;
      }

      .cls-2, .cls-3, .cls-4 {
        fill: none;
        stroke: #fff;
        stroke-miterlimit: 10;
      }

      .cls-3 {
        stroke-width: .1px;
      }

      .cls-4 {
        stroke-linecap: round;
        stroke-width: .05px;
      }
    </style>
  </defs>
  <g>
    <line class="cls-4" y1="1.18" x2=".71" y2="1.18"/>
    <line class="cls-4" x1="2.72" y1="1.18" x2="3.43" y2="1.18"/>
    <circle class="cls-2" cx="1.72" cy="1.18" r=".57"/>
    <circle class="cls-3" cx="1.72" cy="1.18" r="1"/>
    <path class="cls-1" d="m1.37,2.58c.26-.58.51-1.18.81-1.73,0,0,.05.07.05.07-.25.18-.56.41-.78.55-.02-.01.02.07-.09,0,0-.04.02-.07.04-.1C1.66.91,1.93.44,2.21,0c-.23.46-.5.95-.75,1.4,0,0-.03.05-.03.05,0,0,0,.01,0,0-.11-.06-.04,0-.06-.03.26-.2.53-.39.8-.57,0,0,.05.07.05.07h-.01c-.22.48-.56,1.14-.85,1.66h0Z"/>
  </g>
  <g>
    <path class="cls-1" d="m4.06.9s-.09,0-.14-.02c-.04-.01-.08-.03-.11-.05l.05-.1s.06.03.09.04c.04.01.07.02.11.02.03,0,.05,0,.07,0s.03-.01.04-.02c0,0,.01-.02.01-.03,0-.02,0-.03-.02-.04s-.03-.02-.05-.02c-.02,0-.04-.01-.07-.02-.02,0-.05-.01-.07-.02-.02,0-.05-.02-.07-.03-.02-.01-.04-.03-.05-.05-.01-.02-.02-.05-.02-.08,0-.03,0-.06.03-.09.02-.03.05-.05.08-.07.04-.02.08-.03.14-.03.04,0,.07,0,.11.01s.07.02.1.04l-.04.1s-.06-.03-.08-.04c-.03,0-.05-.01-.08-.01s-.05,0-.07,0c-.02,0-.03.01-.04.02,0,0-.01.02-.01.03,0,.02,0,.03.02.04s.03.02.05.02c.02,0,.04.01.07.02s.05.01.07.02c.02,0,.05.02.07.03.02.01.04.03.05.05s.02.05.02.08c0,.03,0,.06-.03.09s-.05.05-.08.07c-.04.02-.08.03-.14.03Z"/>
    <path class="cls-1" d="m4.63.89h-.14V.3h.14v.6Zm.28-.24h-.29v-.12h.29v.12Zm0-.35h.14v.6h-.14V.3Z"/>
    <path class="cls-1" d="m5.4.78h.32v.11h-.46V.3h.45v.11h-.31v.37Zm-.01-.24h.29v.11h-.29v-.11Z"/>
    <path class="cls-1" d="m6.06.89h-.14V.3h.14v.6Zm.28-.24h-.29v-.12h.29v.12Zm0-.35h.14v.6h-.14V.3Z"/>
    <path class="cls-1" d="m6.61.89l.27-.6h.14l.27.6h-.14l-.22-.53h.05l-.22.53h-.14Zm.13-.13l.04-.1h.31l.04.1h-.38Z"/>
    <path class="cls-1" d="m7.43.89V.3h.11l.35.43h-.06v-.43h.14v.6h-.11l-.35-.43h.06v.43h-.14Z"/>
    <path class="cls-1" d="m8.24.9s-.04,0-.06-.02c-.02-.02-.02-.04-.02-.06s0-.04.02-.06c.02-.02.04-.02.06-.02s.04,0,.06.02c.02.02.02.03.02.06s0,.04-.02.06c-.02.02-.04.02-.06.02Z"/>
    <path class="cls-1" d="m8.51.89V.3h.14v.6h-.14Zm.12-.14v-.16s.28-.3.28-.3h.15l-.26.28-.08.08-.1.1Zm.28.14l-.21-.26.09-.1.28.36h-.16Z"/>
    <path class="cls-1" d="m3.86,1.91v-.6h.26c.05,0,.1,0,.14.03.04.02.07.04.09.07.02.03.03.07.03.12s-.01.08-.03.11c-.02.03-.05.06-.09.07-.04.02-.08.03-.14.03h-.18l.06-.06v.23h-.14Zm.14-.21l-.06-.07h.17s.08,0,.1-.03c.02-.02.03-.04.03-.08s0-.06-.03-.08c-.02-.02-.05-.03-.1-.03h-.17l.06-.07v.34Z"/>
    <path class="cls-1" d="m4.7,1.91h-.14v-.6h.14v.6Zm.28-.24h-.29v-.12h.29v.12Zm0-.35h.14v.6h-.14v-.6Z"/>
    <path class="cls-1" d="m5.62,1.93s-.09,0-.13-.02c-.04-.02-.08-.04-.1-.06-.03-.03-.05-.06-.07-.1-.02-.04-.02-.08-.02-.12s0-.08.02-.12c.02-.04.04-.07.07-.1s.06-.05.1-.06c.04-.02.08-.02.13-.02s.09,0,.13.02c.04.02.07.04.1.06s.05.06.07.1.02.08.02.12,0,.09-.02.12-.04.07-.07.1c-.03.03-.06.05-.1.06-.04.02-.08.02-.13.02Zm0-.12s.05,0,.07-.01c.02,0,.04-.02.06-.04.02-.02.03-.04.04-.06,0-.02.01-.05.01-.08s0-.05-.01-.08c0-.02-.02-.04-.04-.06s-.04-.03-.06-.04c-.02,0-.05-.01-.07-.01s-.05,0-.07.01c-.02,0-.04.02-.06.04-.02.02-.03.04-.04.06,0,.02-.01.05-.01.08s0,.05.01.08c0,.02.02.04.04.06.02.02.04.03.06.04.02,0,.05.01.07.01Z"/>
    <path class="cls-1" d="m6.25,1.91v-.48h-.19v-.11h.52v.11h-.19v.48h-.14Z"/>
    <path class="cls-1" d="m7.02,1.93s-.09,0-.13-.02c-.04-.02-.08-.04-.1-.06-.03-.03-.05-.06-.07-.1-.02-.04-.02-.08-.02-.12s0-.08.02-.12c.02-.04.04-.07.07-.1s.06-.05.1-.06c.04-.02.08-.02.13-.02s.09,0,.13.02c.04.02.07.04.1.06s.05.06.07.1.02.08.02.12,0,.09-.02.12-.04.07-.07.1c-.03.03-.06.05-.1.06-.04.02-.08.02-.13.02Zm0-.12s.05,0,.07-.01c.02,0,.04-.02.06-.04.02-.02.03-.04.04-.06,0-.02.01-.05.01-.08s0-.05-.01-.08c0-.02-.02-.04-.04-.06s-.04-.03-.06-.04c-.02,0-.05-.01-.07-.01s-.05,0-.07.01c-.02,0-.04.02-.06.04-.02.02-.03.04-.04.06,0,.02-.01.05-.01.08s0,.05.01.08c0,.02.02.04.04.06.02.02.04.03.06.04.02,0,.05.01.07.01Z"/>
    <path class="cls-1" d="m7.82,1.93s-.09,0-.13-.02c-.04-.02-.07-.04-.1-.06-.03-.03-.05-.06-.07-.1-.02-.04-.02-.08-.02-.12s0-.09.02-.12c.02-.04.04-.07.07-.1s.06-.05.1-.06c.04-.01.08-.02.13-.02.05,0,.1,0,.14.03.04.02.08.04.11.08l-.09.08s-.04-.04-.07-.05c-.03-.01-.05-.02-.08-.02-.03,0-.05,0-.08.01-.02,0-.04.02-.06.04s-.03.04-.04.06c0,.02-.01.05-.01.08s0,.05.01.08c0,.02.02.04.04.06.02.02.04.03.06.04.02,0,.05.01.08.01s.05,0,.08-.01c.03,0,.05-.02.08-.04l.08.1s-.07.04-.11.06-.09.02-.13.02Zm.11-.09v-.22h.13v.24l-.13-.02Z"/>
    <path class="cls-1" d="m8.27,1.91v-.6h.26c.05,0,.1,0,.14.03.04.02.07.04.09.07.02.03.03.07.03.12s-.01.08-.03.11c-.02.03-.05.06-.09.07-.04.02-.08.03-.14.03h-.18l.06-.06v.23h-.14Zm.14-.21l-.06-.06h.17s.08,0,.1-.03c.02-.02.03-.04.03-.08s0-.06-.03-.08c-.02-.02-.05-.03-.1-.03h-.17l.06-.07v.34Zm.24.21l-.15-.22h.15l.15.22h-.15Z"/>
    <path class="cls-1" d="m8.91,1.91l.27-.6h.14l.27.6h-.14l-.22-.53h.05l-.22.53h-.14Zm.13-.13l.04-.1h.31l.04.1h-.38Z"/>
    <path class="cls-1" d="m9.72,1.91v-.6h.26c.05,0,.1,0,.14.03.04.02.07.04.09.07.02.03.03.07.03.12s-.01.08-.03.11c-.02.03-.05.06-.09.07-.04.02-.08.03-.14.03h-.18l.06-.06v.23h-.14Zm.14-.21l-.06-.07h.17s.08,0,.1-.03c.02-.02.03-.04.03-.08s0-.06-.03-.08c-.02-.02-.05-.03-.1-.03h-.17l.06-.07v.34Z"/>
    <path class="cls-1" d="m10.56,1.91h-.14v-.6h.14v.6Zm.28-.24h-.29v-.12h.29v.12Zm0-.35h.14v.6h-.14v-.6Z"/>
    <path class="cls-1" d="m11.34,1.91v-.24l.03.08-.26-.44h.15l.2.33h-.08l.2-.33h.13l-.26.44.03-.08v.24h-.14Z"/>
  </g>
</svg>